<svg width="104" height="33" viewBox="0 0 104 33" fill="none" xmlns="http://www.w3.org/2000/svg">
<path d="M24 25.4263C24 29.6092 19.9545 33.0001 12.2727 33.0001C4.59095 33.0001 0 28.7977 0 24.6148C0 20.4319 4.59095 17.8524 12.2727 17.8524C19.9545 17.8524 24 21.2433 24 25.4263Z" fill="#FF6400"/>
<path d="M19.9093 14.8773C19.9093 17.2675 16.0921 17.0413 11.7274 17.0413C7.3628 17.0413 3.81836 16.997 3.81836 14.6068C3.81836 12.2166 7.51776 9.73792 11.8824 9.73792C16.2471 9.73792 19.9093 12.4871 19.9093 14.8773Z" fill="#FF6400"/>
<path d="M19.3637 8.38505C19.3637 10.7753 16.092 9.19653 11.7274 9.19653C7.36271 9.19653 4.90918 10.5048 4.90918 8.11455C4.90918 5.72432 7.36271 4.32764 11.7274 4.32764C16.092 4.32764 19.3637 5.99481 19.3637 8.38505Z" fill="#FF6400"/>
<path d="M15.818 2.74402C15.818 4.47599 14.0896 3.24593 11.7837 3.24593C9.47785 3.24593 8.18164 4.47599 8.18164 2.74402C8.18164 1.01204 9.47785 0 11.7837 0C14.0896 0 15.818 1.01204 15.818 2.74402Z" fill="#FF6400"/>
<path d="M39.253 23.72C38.6663 23.72 38.0663 23.6733 37.453 23.58C36.853 23.5 36.3063 23.3467 35.813 23.12C35.4796 22.9867 35.2396 22.8067 35.093 22.58C34.9596 22.3533 34.893 22.1133 34.893 21.86C34.9063 21.6067 34.9796 21.38 35.113 21.18C35.2596 20.9667 35.4463 20.82 35.673 20.74C35.913 20.6467 36.1796 20.6533 36.473 20.76C37.033 20.96 37.533 21.1067 37.973 21.2C38.4263 21.28 38.8596 21.32 39.273 21.32C39.7663 21.32 40.1196 21.2533 40.333 21.12C40.5463 20.9733 40.653 20.7867 40.653 20.56C40.653 20.36 40.5796 20.2067 40.433 20.1C40.2996 19.9933 40.1063 19.92 39.853 19.88L37.633 19.52C36.8063 19.3733 36.1663 19.0733 35.713 18.62C35.2596 18.1533 35.033 17.5467 35.033 16.8C35.033 16.1067 35.2263 15.5133 35.613 15.02C36.013 14.5133 36.553 14.1267 37.233 13.86C37.9263 13.58 38.7196 13.44 39.613 13.44C40.213 13.44 40.7596 13.4867 41.253 13.58C41.7463 13.66 42.2263 13.8133 42.693 14.04C42.9863 14.16 43.193 14.3333 43.313 14.56C43.433 14.7867 43.4796 15.0267 43.453 15.28C43.4263 15.52 43.3396 15.7467 43.193 15.96C43.0596 16.16 42.873 16.3 42.633 16.38C42.393 16.4467 42.113 16.4267 41.793 16.32C41.353 16.1467 40.9596 16.02 40.613 15.94C40.2796 15.86 39.9663 15.82 39.673 15.82C39.1263 15.82 38.7396 15.8933 38.513 16.04C38.2863 16.1867 38.173 16.3733 38.173 16.6C38.173 16.7733 38.233 16.92 38.353 17.04C38.473 17.1467 38.6596 17.22 38.913 17.26L41.133 17.64C41.9863 17.7733 42.6396 18.0667 43.093 18.52C43.5596 18.96 43.793 19.56 43.793 20.32C43.793 21.4 43.3796 22.24 42.553 22.84C41.7263 23.4267 40.6263 23.72 39.253 23.72ZM50.6148 23.72C49.4148 23.72 48.3748 23.5133 47.4948 23.1C46.6282 22.6733 45.9615 22.0733 45.4948 21.3C45.0282 20.5267 44.7948 19.6133 44.7948 18.56C44.7948 17.5467 45.0148 16.66 45.4548 15.9C45.9082 15.1267 46.5215 14.5267 47.2948 14.1C48.0815 13.66 48.9748 13.44 49.9748 13.44C50.7082 13.44 51.3748 13.56 51.9748 13.8C52.5748 14.0267 53.0882 14.3667 53.5148 14.82C53.9415 15.26 54.2615 15.7933 54.4748 16.42C54.7015 17.0467 54.8148 17.7467 54.8148 18.52C54.8148 18.7867 54.7415 18.9867 54.5948 19.12C54.4482 19.24 54.2148 19.3 53.8948 19.3H47.7748V17.62H52.2148L51.8948 17.88C51.8948 17.3867 51.8282 16.9867 51.6948 16.68C51.5615 16.3733 51.3615 16.14 51.0948 15.98C50.8415 15.82 50.5215 15.74 50.1348 15.74C49.7215 15.74 49.3615 15.84 49.0548 16.04C48.7615 16.2267 48.5348 16.5067 48.3748 16.88C48.2148 17.2533 48.1348 17.72 48.1348 18.28V18.46C48.1348 19.4067 48.3415 20.0867 48.7548 20.5C49.1815 20.9 49.8348 21.1 50.7148 21.1C51.0082 21.1 51.3415 21.0667 51.7148 21C52.1015 20.92 52.4682 20.8133 52.8148 20.68C53.1615 20.5467 53.4615 20.5267 53.7148 20.62C53.9682 20.7 54.1615 20.8467 54.2948 21.06C54.4415 21.26 54.5215 21.4933 54.5348 21.76C54.5482 22.0133 54.4882 22.2667 54.3548 22.52C54.2215 22.76 54.0015 22.9467 53.6948 23.08C53.2282 23.2933 52.7282 23.4533 52.1948 23.56C51.6748 23.6667 51.1482 23.72 50.6148 23.72ZM58.1486 23.68C57.5886 23.68 57.1553 23.5267 56.8486 23.22C56.5419 22.9133 56.3886 22.4667 56.3886 21.88V15.26C56.3886 14.6867 56.5353 14.2467 56.8286 13.94C57.1353 13.6333 57.5686 13.48 58.1286 13.48C58.6886 13.48 59.1153 13.6333 59.4086 13.94C59.7019 14.2467 59.8486 14.6867 59.8486 15.26V16.36L59.6286 15.38C59.9086 14.7933 60.3219 14.3267 60.8686 13.98C61.4286 13.62 62.0886 13.44 62.8486 13.44C63.5686 13.44 64.1819 13.6133 64.6886 13.96C65.2086 14.3067 65.5819 14.8333 65.8086 15.54H65.5286C65.8353 14.8867 66.2953 14.3733 66.9086 14C67.5219 13.6267 68.2019 13.44 68.9486 13.44C69.7219 13.44 70.3553 13.5933 70.8486 13.9C71.3419 14.1933 71.7086 14.66 71.9486 15.3C72.2019 15.9267 72.3286 16.72 72.3286 17.68V21.88C72.3286 22.4667 72.1686 22.9133 71.8486 23.22C71.5419 23.5267 71.1019 23.68 70.5286 23.68C69.9686 23.68 69.5353 23.5267 69.2286 23.22C68.9219 22.9133 68.7686 22.4667 68.7686 21.88V17.78C68.7686 17.2067 68.6819 16.7933 68.5086 16.54C68.3353 16.2867 68.0486 16.16 67.6486 16.16C67.1553 16.16 66.7753 16.3333 66.5086 16.68C66.2553 17.0267 66.1286 17.52 66.1286 18.16V21.88C66.1286 22.4667 65.9753 22.9133 65.6686 23.22C65.3619 23.5267 64.9219 23.68 64.3486 23.68C63.7753 23.68 63.3353 23.5267 63.0286 23.22C62.7219 22.9133 62.5686 22.4667 62.5686 21.88V17.78C62.5686 17.2067 62.4819 16.7933 62.3086 16.54C62.1353 16.2867 61.8486 16.16 61.4486 16.16C60.9686 16.16 60.5953 16.3333 60.3286 16.68C60.0753 17.0267 59.9486 17.52 59.9486 18.16V21.88C59.9486 23.08 59.3486 23.68 58.1486 23.68ZM80.8755 23.72C80.1155 23.72 79.4355 23.54 78.8355 23.18C78.2488 22.8067 77.8621 22.32 77.6755 21.72L77.8955 20.9V21.88C77.8955 22.4667 77.7421 22.9133 77.4355 23.22C77.1421 23.5267 76.7155 23.68 76.1555 23.68C75.5821 23.68 75.1421 23.5267 74.8355 23.22C74.5421 22.9133 74.3955 22.4667 74.3955 21.88V11.02C74.3955 10.4333 74.5488 9.98667 74.8555 9.68C75.1621 9.37333 75.5955 9.22 76.1555 9.22C76.7288 9.22 77.1688 9.37333 77.4755 9.68C77.7955 9.98667 77.9555 10.4333 77.9555 11.02V15.3H77.7155C77.9155 14.7533 78.3088 14.3067 78.8955 13.96C79.4821 13.6133 80.1421 13.44 80.8755 13.44C81.7288 13.44 82.4755 13.6467 83.1155 14.06C83.7688 14.4733 84.2755 15.06 84.6355 15.82C84.9955 16.58 85.1755 17.5 85.1755 18.58C85.1755 19.6333 84.9955 20.5467 84.6355 21.32C84.2755 22.0933 83.7688 22.6867 83.1155 23.1C82.4755 23.5133 81.7288 23.72 80.8755 23.72ZM79.7555 21.1C80.1155 21.1 80.4288 21.0133 80.6955 20.84C80.9755 20.6533 81.1955 20.38 81.3555 20.02C81.5155 19.6467 81.5955 19.1667 81.5955 18.58C81.5955 17.6867 81.4221 17.0467 81.0755 16.66C80.7288 16.26 80.2888 16.06 79.7555 16.06C79.3955 16.06 79.0755 16.1467 78.7955 16.32C78.5155 16.4933 78.2955 16.7667 78.1355 17.14C77.9755 17.5 77.8955 17.98 77.8955 18.58C77.8955 19.46 78.0688 20.1 78.4155 20.5C78.7621 20.9 79.2088 21.1 79.7555 21.1ZM90.5378 23.72C89.2578 23.72 88.3111 23.38 87.6978 22.7C87.0978 22.0067 86.7978 20.9667 86.7978 19.58V11.02C86.7978 10.4333 86.9511 9.98667 87.2578 9.68C87.5645 9.37333 87.9978 9.22 88.5578 9.22C89.1311 9.22 89.5711 9.37333 89.8778 9.68C90.1978 9.98667 90.3578 10.4333 90.3578 11.02V19.46C90.3578 19.9533 90.4511 20.3133 90.6378 20.54C90.8378 20.7667 91.0911 20.88 91.3978 20.88C91.4911 20.88 91.5845 20.8733 91.6778 20.86C91.7845 20.8333 91.8978 20.8133 92.0178 20.8C92.2445 20.8 92.4111 20.8867 92.5178 21.06C92.6378 21.2333 92.6978 21.5867 92.6978 22.12C92.6978 22.5867 92.6045 22.94 92.4178 23.18C92.2311 23.4067 91.9445 23.5533 91.5578 23.62C91.4511 23.6333 91.2978 23.6533 91.0978 23.68C90.8978 23.7067 90.7111 23.72 90.5378 23.72ZM99.0133 23.72C97.8133 23.72 96.7733 23.5133 95.8933 23.1C95.0266 22.6733 94.3599 22.0733 93.8933 21.3C93.4266 20.5267 93.1933 19.6133 93.1933 18.56C93.1933 17.5467 93.4133 16.66 93.8533 15.9C94.3066 15.1267 94.9199 14.5267 95.6933 14.1C96.4799 13.66 97.3733 13.44 98.3733 13.44C99.1066 13.44 99.7733 13.56 100.373 13.8C100.973 14.0267 101.487 14.3667 101.913 14.82C102.34 15.26 102.66 15.7933 102.873 16.42C103.1 17.0467 103.213 17.7467 103.213 18.52C103.213 18.7867 103.14 18.9867 102.993 19.12C102.847 19.24 102.613 19.3 102.293 19.3H96.1733V17.62H100.613L100.293 17.88C100.293 17.3867 100.227 16.9867 100.093 16.68C99.9599 16.3733 99.7599 16.14 99.4933 15.98C99.2399 15.82 98.9199 15.74 98.5333 15.74C98.1199 15.74 97.7599 15.84 97.4533 16.04C97.1599 16.2267 96.9333 16.5067 96.7733 16.88C96.6133 17.2533 96.5333 17.72 96.5333 18.28V18.46C96.5333 19.4067 96.7399 20.0867 97.1533 20.5C97.5799 20.9 98.2333 21.1 99.1133 21.1C99.4066 21.1 99.7399 21.0667 100.113 21C100.5 20.92 100.867 20.8133 101.213 20.68C101.56 20.5467 101.86 20.5267 102.113 20.62C102.367 20.7 102.56 20.8467 102.693 21.06C102.84 21.26 102.92 21.4933 102.933 21.76C102.947 22.0133 102.887 22.2667 102.753 22.52C102.62 22.76 102.4 22.9467 102.093 23.08C101.627 23.2933 101.127 23.4533 100.593 23.56C100.073 23.6667 99.5466 23.72 99.0133 23.72Z" fill="#FF6400"/>
</svg>
