<svg viewBox="81.4824 0 700 700" fill="none" xmlns="http://www.w3.org/2000/svg">
  <rect x="81.4824" width="700" height="700" rx="177.778" fill="#020D1F"/>
  <path d="M373.659 519.638L387.575 474.305L413.306 368.392C414.909 361.81 407.527 356.737 401.957 360.592L355.853 392.508L346.662 379.235L395.519 345.413C400.915 341.678 399.101 333.283 392.645 332.109L334.178 321.476L337.07 305.59L395.533 316.222C401.99 317.396 406.643 310.178 402.908 304.782L388.071 283.351L401.344 274.16L417.835 297.981C421.453 303.206 429.545 301.706 431.049 295.531L462.528 166.259H359.317C356.245 166.259 353.682 168.308 352.66 170.867L228.722 512.981C226.672 519.124 230.771 524.759 237.428 524.759H367.001C370.073 524.759 372.632 522.71 373.659 519.638Z" fill="#F7F8F8"/>
  <path d="M632.807 512.981L508.355 170.867C507.328 168.308 504.77 166.259 501.698 166.259H479.149L448.218 293.277C446.615 299.859 453.998 304.932 459.568 301.077L505.674 269.159L514.865 282.432L466.002 316.257C460.607 319.992 462.42 328.386 468.877 329.561L527.349 340.195L524.457 356.081L465.992 345.448C459.535 344.274 454.882 351.493 458.617 356.889L473.451 378.316L460.178 387.507L443.689 363.688C440.072 358.463 431.979 359.964 430.475 366.138L407.365 461.254H470.965L487.87 519.638C488.892 523.223 491.964 524.759 495.036 524.759H624.1C630.757 524.759 634.852 519.124 632.807 512.981Z" fill="#F7F8F8"/>
</svg>
