<?xml version="1.0" encoding="UTF-8"?><svg id="Layer_1" xmlns="http://www.w3.org/2000/svg" viewBox="0 0 516.02 741.26"><defs><style>.cls-1{fill:#fff;}</style></defs><path class="cls-1" d="M419.35,737.26l-1.55,1.09c-8.99,1.34-9.75-.68-17.05.26-1.52.2-3.67-.31-5.21-.22l-6.63.39-6.43.43-4.67.33c-1.62.12-3.41.03-5.03,0l-4.12-.11-13.48.22c-2.15.04-4.05-.13-6-.65-.86.11-2.39.31-3.38.33l-4.21.1c-1.15.03-2.84.03-3.92-.11-3.85-.5-7.19-.54-10.93-.63l-5.06-.12c-1.16-.03-2.1-.01-3.37.11l-3.1-.59-4.29.13-6.6.19-3.65.18-4.13.23c-3.06.17-5.95.48-9.01.52l-8.89.1c-2.72.03-5.74-.75-8.31-.42l-6.35.81c-.63.08-2.28.17-2.87-.17-1.66-.97-4.38-.05-6.05-.04l-13.47.11c-6.68.05-5.45.54-12.7.45l-4.99-.06-4.71-.06c-3.12-.04-6-.12-9.04.12-1.61.13-3.28-.06-4.93-.09l-12.61-.24c-7.54-.14-10.39-1.17-17.7-.33-2.57.3-4.92,0-7.47-.19-5.17-.38-17.29.51-20.58-.64-1.24-.43-13.76.55-15.42.55l-8.57.02-7.04.36c-2.31.12-4.62.45-6.8.44l-9.81-.06c-2.42-.01-4.66-.4-7.06-.25-3.62.24-7.12.31-10.83.27-4.45-.05-8.68.08-13.09.24l-9.28.33-18.55.66c-2.52.09-4.98-.13-7.45-.2l-8.21-.24-9.99-.33c-1.39-.05-2.88-.28-4.2-.27l-9.39.1c-.83-.22-.35-2.36-.08-3.26.86-2.93.42-5.97.5-8.92l.37-12.71.56-15.69c.08-2.28.12-4.25,0-6.55-.23-4.26-.46-19.64.12-23.08,1.2-7.11,2.08-13.83,2.58-20.98l.65-9.41c.04-.57.52-1.25,1.12-2.21l-1.04-.08c-.27-2.81-.42-5.87-.42-8.95v-24.39s.17-11.97.17-11.97l.03-5.24c.02-3.83.08-7.4-.29-11.29-.22-2.4-.16-4.81-.11-7.15l.07-3.55.54-17.17c.14-4.61-.25-4.34-.21-8.32l.23-20.54.11-9.86.31-8.76.1-9.23.14-4.83.31-10.85.09-8.16-.3-11.24-.44-9.48-.12-4.16-.23-7.8-.6-19.35.09-5.78-.1-7.82v-10.37s-.07-3.25-.07-3.25l-.33-9.75-.23-6.58c-.05-1.44-.54-2.85-.59-4.21l-.24-6.17c-.2-5.09-.37-10-.45-15.15-.04-2.56.58-5.11.7-7.62l.39-8.26c.25-5.2-.79-8.03-.28-11.47.41-2.79.37-5.74.11-8.62l-.41-4.55-.08-4.78-.06-7.29-.09-5.01c-.12-6.47-.11-12.7.33-19.23.25-3.76-.11-7.45-.15-11.13l-.06-6.14-.29-10.9c-.19-7.09.41-9.03.38-16.45l-.08-17.12.04-6.3-.16-5.48-.32-12.56-.65-11.72c-.45-8.06-.46-15.75-.21-23.79.19-6.43-.16-12.63-.26-19.05l-.26-17,.05-9.99c.02-3.15.08-6.11-.05-9.31l-.7-16.31-.58-13.07c-.24-5.36-.44-10.46-.33-15.81l.16-7.46.59-9.57c.17-2.74-.3-5.35-.29-8.14l.04-9.83c0-2.44.21-5.12-.48-7.47C-.07,2.96-.48,1.41,1.31,0c.78,2.66,2.26,2.78,3.94,3.26,3.56,1.02,6.83.7,10.41.73,4.94.05,9.56,1.47,14.47.73,5.66-.86,17.17-.13,22.87-.45l4.43-.25c2.51.49,4.63.86,7.18.62,6.14-.58,12-.32,18.13-.06l8.16.35c5.16.22,10.36-.45,15.61-.47l8.46-.02,11.78-.03c6.7-.02,11.68.75,16.1.59,7.18-.26,14.06-.2,21.17-.09,3.15.05,6.37-.15,9.48.12,4.09.36,7.89-.06,11.9.15l17.57.89c4.98.25,9.77-.18,14.82.44,5.61.69,10.99,1.28,16.56,1.29h6.75s12.52.02,12.52.02l34.44.52,8.89-.09,7.01-.06,6.36.03,12.69-.49,6.5.34c1.34.07,2.58-.09,3.88-.18,5.07-.33,10.05.07,15.23-.1l15.74-.52,7.08-.03,18.79-.46,12.25-.28,7.16-.17,18.47-.83,12.38-.59,9.16-.26,5.67-.18,9.7-.23,15.72-.07,17.21.74,6.59-.05c5.97-.04,1.49,2.14,6.07,10.24l.61,4.25,1.81,11.11c1.16,7.13-.85,14.39-.9,21.64-.05,7.15.38,13.92.69,21.06l.77,17.38-.19,13.96c-.03,2.37.14,4.81-.23,7.14-.19,1.19-.88,11-.84,11.76l.79,16.16.03,6.69.09,17.54c0,1.1.12,2.45.19,3.52.22,3.22.21,6.34.37,9.56l.28,5.7.03,3.83.1,7.84v4.2c-.03,7.89,1.43,5.47-.44,14.86-.97,4.87-.31,10.21-.28,14.07.03,3.4-.46,7.05-.67,10.56l-.52,8.49-.31,5.08c-.28,4.59.06,8.86.13,13.31l.19,10.93.5,9.75.19,11.62-.03,18.91-.2,15.59-.38,12.86-.64,12.71-.72,19.65c-.2,5.38-.07,10.64.41,15.89.23,2.53.18,5.1.06,7.72-.19,4.1.09,7.99.11,12.1l.15,29.86-.1,11.16.11,3.79c.08,2.69-.12,5.19-.23,7.96-.05,1.18.36,2.99.4,4.33l.39,13.76.2,6.96-.2,8.37-.04,22.95-.36,13.35-.03,11.97.25,7.04.07,5.31-.2,6.9c-.12,4.03.46,7.82.92,11.72.37,3.09.02,6.07.23,9.28l.46,7.13.19,9.62.54,15.4c.13,3.58.19,7.03.38,10.68l.51,9.75.63,4.23-.18,10.7-.21,4.59c-.08,1.62-.07,3.11-.04,4.67l.11,6.95.4,7.11c.07,1.26-.27,2.7-.31,3.94-.3,7.99.35,15.05.08,21.91l-.16,4.01-.14,5.97-.23,8.87-.04,7.31c-.02,2.57,2.15,5.11-1.11,7.65-.67.52-1.27,1.17-1.76,1.24s-1.59-.72-2.12-.76c-1.41-.12-2.86-.23-4.35-.75l-2.98,1.01-2.84-.73c-.12-.03-.83-.05-.95-.04l-.94.08-.8.06c-.18.01-.17-.21-.35-.95-1.3-.35-3.43.19-5.04.32-1.93.16-3.55-.72-5.44.68-.94.7-2.97.35-4.32.33-3.99-.06-8.02-.22-11.92.29-3.02.4-5.59.1-8.65.05l-8.44-.16-15.35.05-12.48-.04c-2.12,0-3.96-.29-6.02-1.13ZM331.22,8.37l-.74,1.23,1.16.7.74-1.23-1.16-.7ZM282.52,9.37v.93h2.33v-.93h-2.33ZM210.09,19.95c-.21.07.07.67.17.88s.62-.09.71-.29.25-.86.03-.82c-.19.04-.77.18-.91.23ZM368.23,30.97l-2.57-.47,1.37,1.26c.25.23,1.06-.64,1.19-.79ZM354.35,67.7c2.6,2.98,4.95,5.74,7.7,8.31,3.39,3.16-1.46,3.44,3.36,8.81,2.61,2.91-.19,5.31,2.65,4.55l3.1-.82c3.74-.99,6.84-3.07,10.07-5.05,6.51-3.99,3.09-6.13,7.36-7.64.35-.12,1.28-.23,1.35.08l.29,1.2c.37,1.5,1.08,2.68,2.31,3.67,5.32,4.26.87,8.4,6.94,10.42.79,2.15,2.38,5.6.1,6.85-1.3.71-3.52,1.3-4.57,2.32-1.68,1.63-3.69,2.59-5.35,4.03-2.02,1.74-2.84,5.01-5.31,6.87-1.38,1.04-2.22,4.28-1.42,5.66,1.38,2.37,4.03,1.71,5.82.58,1.36-.86,3.89.13,5.28-.37,4.46-1.63,8.3-3.98,12.51-5.99,2.89-1.38,5.71-2.52,8.45-4.14.88-.52,2.33-3.12,3.66-1.28,6.2,8.57,4.43,7.23,8.9,15.65.91,1.72,2.53,3.52,2.68,5.41.12,1.47-1.89,2.26-2.94,2.72-2.43,1.05-4.47,3.35-6.84,4.08-1.43.44-2.73.74-4.04,1.23l-5.82,2.2c-3.93,1.49-7.7,3.64-10.38,6.85-3-.82-9.56.68-9.27,4.45.12,1.58.92,2.73,2.5,3.45l.65,3.39,1.32,1.24c.8.76-2.23,3.67-1.33,5.45,2.34-1.78,3.82-2.45,6.17-3.22l6.71-2.18,7.98-2.65,20.96-7.04c4.36-1.46,6.58-3.75,7.29-1.54s1.73,4.48,2.75,6.57c1.99,4.05,2.83,8.36,3.99,12.81.78,2.98,4.94,3.64,5.07,6.7.07,1.65-1.7,2.36-2.94,2.55-6.45,1.02-11.19,3.97-13.42,4-3.03.04-3.82,1.37-5.99,2.61-2.55,1.45-36.68,7.72-36.63,7.68l-5.19,4.02c-.43.33-1.31.33-1.54.6s.07,1.12.25,1.72c.3.99-.03,2.43.05,3.24.15,1.45.48,2.62-.27,4.04-.27.51-.65,1.09-.41,1.3.79.73,4.31-.09,5.59-.4l5.17-1.28c2.26-.56,3.82-1.59,6.28-1.63,4.19-.07,8.26-1.58,12.38-1.83l7.88-.48,1.87-2.01,12.47-2.96,11.7-3.29c.43-.12,1.7-.09,1.84.29l.59,1.56c1.01,2.69,2.62,5.34,3.36,8.18.98,3.76,1.81,7.01,3.85,10.46,1.08,1.82,1.39,6.85-1.43,6.57-3.39-.34-8.41-.76-11.56.81-1.28.63-3.29.67-4.77,1.11-6.49,1.95-12.56,3.5-19.38,4.24l-3.02,1.45c-7.17.07-13.74,1.46-20.54,3.27-1.76.47-3.47.62-5.08,1.48-7.48,4-5.5,1.08-9.3,3.77-4.55,3.23-1.39,2.56-7.62,6.75-.26.78-.6,1.68-.96,2.17l-.74,1.03c-.4.55,4.33,3.27,10.08-1.18,2.94-.37,6.41-.64,9.46-1.23l7.56-1.45c3.63-.7,7.22-1.38,10.78-2.33l5.23-1.39c1.35-.36,2.95-1.17,4.42-1.44,4.37-.79,8.27-2.15,12.46-3.27l10.02-2.67c1.46-.39,3.12-2.41,4.85-1.78,1.9.69,1.45,4.78,2.01,7.82,1.81,9.84,3.5,5.75.66,12.69-.46,1.12-.81,2.46-.25,3.49s.9,3.77-.56,3.98c-7.08,1.01-13.63,2.48-20.51,4.22l-8.86,2.24-2.86.83-3.62.95c-1.36.35-2.57.99-4.01,1.42l-6.23,1.86c-1.47.44-2.6.91-4.03,1.19l-7.32,1.45c-1.09.22-2.51.56-3.53.93l-4.15,1.54c-1.34.5-2.46.46-3.29-.5s-2.38.72-2.68,2c-.18.75-2.54.44-3.21.93l-6,4.46c-.43.32-2.27.19-2.14.67.11.41.4,1.38.58,1.73l1.42,2.8c10.61,3.11,7.81-2.15,12.09-1.21,2.44.53,4.13-.61,6.24-1.45,1.19-.48,3.24-.56,4.44-1.18,3.84-1.99,7.7-3.14,11.88-4.11,8.24-1.92,9.46-1.61,17.81-4.29l5.65-1.81,5.21-1.71c2.14-.71,3.85-1.4,6.31-2.5,1.15,1.38,3.2,3.68,4.15,5.29l6.52,17.16-2.1,4.45c-1.21,2.56-2.45,2.99-5.19,3.04-2.02.04-13.42,1.51-14.75,2.71-.76.36-2.65.42-3.46.75l-5.34,2.15c-6.04,2.43-5.41,1.06-7.67,3.11-1.13,1.02-3.66,1.02-5.3,1.49-3.73,1.08-7.23,1.92-11.06,2.15l-10.48.62c-4.33.26-7.79,1.53-10.45,5.03-.72.94-1.15,3.57-.62,4.62.47.94.89,1.97,1.18,3.05,1.32.6,3.53.37,5.25.11,2.78-.42,5.89-.18,8.33-1.03l5.67-1.99c3.56-1.25,7.35-2.04,11.1-2.7,2.24-.39,3.63-.91,5.54-2.16,1.76-1.15,4.45-1.49,6.46-2.41,3.64-1.66,7.43-2.88,11.22-4.03.84-.26,2.31-1.61,3.09-1.35,2.1.72,1.05,3.08,1.34,4.36,1.68,7.45,6.28,10.79,8.13,18.17.37,1.47.51,2.71-.55,3.67-.84.76-2.16.8-3.41.13-1-.53-1.9.79-2.63.92l-4.49.81c-1.45.26-3.13.79-3.92,1.37l.24.96c-6.51.37-4.18,1.49-10.08,2.95-2.99,4.08-3.91,1.14-6.45,2.88-3.41,2.34-7.37,3.29-11.58,3.49-2.68.12-5.55,1.82-8.23,2.22l-1.4.21c-.92.14,1.76,5.83,5.48,5.77,1.32-.02,3.07.21,4.17-.04l7.97-1.77c1.25-.28,3.86.58,4.84-.23l3.18-2.6c.08-.67.24-1.67.67-1.78,3.33-.87-.32.77,3.56-.39l10.37-3.11c.66-.2,1.72.62,1.88,1.23.79,3.04,2.56,5,4.48,7.23,2.03,2.37,3.84,4.16,6.76,5.41.88.37,1.54,2.24,1.33,3.08-.19.78-1.57,2.07-2.39,2.12-2.71.15-4.21,1.23-6.38,2.43-1.43.8-2.57,1.39-3.73,2.42-2.91,2.6-7.01,3.56-10.29,5.54-.76.46-1.88,1.38-2.75,2.03-.79.59-.28,3.07.32,3.93,2.05.81,4.89.72,6.83-.19l12.66-5.94c2.6-1.22,4.69-2.93,5.35-6.02,1.11-.36,3.41-.42,4.31.19,2.13,4.46,7.37,8.71,11.58,11.24.66,2.12,1.57,6.41.57,8.06-.5.82-2.02,1.34-3.21,1.92l-3.79,1.83c-.6.29-1.23,1.61-1.73,2.54l5.91,1.43c1.44,3.22,4.32,5.39,8.01,5.45.71.66,1.35,1.33,2.07,1.78l6.02,3.71c.21.13,1.97.07,1.56-1.12-.49-1.42.03-4.09,1.14-5.48,1.5-1.88,1.66-3.39,1.77-5.77.18-3.86.28-7.64.12-11.58l-.3-7.31-.23-7.61.09-6.54.56-17.87c.18-5.94.03-11.64.07-17.57l.05-9.7.45-22.34.27-15.4c.09-5.22-.16-9.99-.78-15.18s.16-10.36.41-15.55l.76-15.64c.38-7.76.9-15.37.83-23.14-.04-4.46-.45-8.77-.23-13.32l.79-16.34c.21-4.42.44-8.58.3-13.02l-.47-15.37,1-21.29c.58-12.46.01-24.68.69-37.13.16-3.03.13-5.91.11-8.93l-.07-10.82.52-4.14c.18-1.43.23-3.56-.26-4.68-1.46-3.29.4-6.2-.1-9.46-.44-2.85-2.39-7.11-.93-10.04,1.22-2.45-3.78.96-10.02-1.2-2.99-1.04-5.98.62-9.09.35l-7.22-.62c-.75-.06-1.76-1.94-2.8-.77-.37.41-1.75.97-2.1.6l-1.26-1.32c-2.06,1.49-4.39,1.69-6.62.46l-3.47.51c-.44.06-1.04-.08-1.76-.2-2.33-.38-4.9-.22-7.35-.37-4.48-.27-8.7-.32-13.12-.14l-5.53.23-5.61.16c-2.78.08-7.01-.11-10.2-.23l-19.88-.78-11.16.56-3.71.42c-1.04.03-3.05-1.74-3.99-1.32-1.96.87-3.33-.2-4.64-.08l-5.74.52c-1.9.17-3.51.09-5.28.82-5.11,2.12-3.66-.78-7.1-.77h-4.96c-3.42.02-6.36-.57-9.77-.17s-3.85.05-5.68-.09c-10.35-.76-7.57.62-11.63.62-6.81,0-8.39-1.27-13.2-.85l-4.57.4c-2.83.25-9.49-.38-9.94-.29-1.19.24-1.93.35-2.96.44l-7.55.63c-2.93.24-5.71.06-8.45.03-1.71-.02-4.24.66-5.61.25-1.62-.49-2.39-.5-3.88-.54l-12.7-.34c-1.41-.04-2.63.17-4.12.03-2.32-.23-4.85.27-7.11.18-4.1-.16-7.97-.05-12.06.02-1.83.03-3.29-.29-5.23.14-1.67.37-4.19-.92-5.85-.69-2.03.29-3.84.26-5.72-.22-8.43,1.1-5.52-.2-8.41-.32-8.65-.36-1.63-1.29-15.39-.84l-4.83.16c-2.93.1-6.3-1.31-9.21-.12-4.82,1.97-.93-.55-8.37.3-1.66.19-3.64-.14-5.48-.14-1.12,0-3.27,1.74-4.24.82-1-.95-2.25-1.98-3.58-1.26-3,1.63-5.83,1.14-9.04,1.22s-8.35-.12-11.22-.7c-.51-.1-1.74.06-2.25.03l-10.6-.62c-1.56-.09-3.64-.84-5.04-.72-2.44.21-4.25.17-6.58-.39-1.67-.4-4.03.19-5.87.17l-11.9-.11-6.69-.19c-3.05-.09-6.12.22-9.13-.01-2.47-.19-4.3.17-6.2,1.85-1.35.32-3.82.33-5.48.23-.57-1.97,2.02-2.64,1.4-3.04-1.78-1.17-4.82-1.35-6.73-1.07-.42.06-.8,1.66-.39,1.78l1.6.46c.73.21,1.79.92,1.8,1.4l-3.37,2.19-3.29,2.17.05,1.8c.01.4-1.12.95-1.25,1.33-1.56,4.63-.03,3.38-.11,9.66-.03,2.6-.29,5.25-.03,7.73l.82,8.14c.13,1.3.03,2.77-.02,4.12l-.18,4.36c-.2,4.9.13,11.62.68,16.07.07.6,1.84,1.66,1.49,2.06-.3.34-1.51,1.11-1.64,1.59-.52,1.94-.19,5.42-.35,7.65-.45,6.17-.69,11.88-.41,18.03l.47,10.27-.07,10.31v17.89s-.03,20.69-.03,20.69l.31,36.25c.07,8.33-1.18,16.42-.51,24.83.3,3.74-.06,7.37.03,11.09l.45,19.68c.31,13.53,1.12,26.67.73,40.14-.06,1.91.21,3.86-.11,5.69-.27,1.52.91,3.25.77,4.31l-.86,6.23-.43,6.37-.49,6.07c-.05.63-.5,2.12-.28,2.67l1.52,3.73c.79,1.95,1.37,3.7-.53,5.67-2.32,2.41-3.94,6.73-2.68,10.1,3.29,1,6.87-1.95,8.19-4.99.38-.88,1.26-2.35,1.9-2.75l4.68-.76c2.63-.43,4.19-7.18,4.95-8.01,1.58-1.75,4.05-4.25,6.12-5.76l6.5-4.74,6.57-5.21c4.26-3.37,9.75-10.42,13.44-14.91,1-1.22,1.77-1.93,3.14-2.84,2.44-1.62,4.52-3.9,6.87-5.68,3.66-2.77,7.42-5.12,10.41-8.74l1.28-2.69c3.73,2.7,5.34-1.24,6.12,2.57,1.66,2.03,4.21,3.38,6.58,4.63,3.14,6.44,4.61,3.54,5.66,6.82,1.21,3.78,1.62,5.39,4.79,8.68l3.51,3.64c1.73,1.8,3.62,3.43,5.35,5.29l11.45,12.34c1.71,1.85,3.06,3.99,4.58,6.12,1.38,1.94.67,3.1,4.08,7.48l4.93,6.33,4.29,5.64c7.74-2,4.2.02,10.61-3.52,2.47-1.36,4.87-3.16,6.87-5.06l6.72-6.38,7.72-7.25c5.31-4.99,11.59-10.59,17.05-14.01.61-.38,1.66-1.5,2.07-1.34,5.55,2.16,5.67,4.17,11,4.14,3.61,5.38,7.62,10.4,11.5,15.45,3.26,4.24,6.46,8.05,10.25,11.81,1.27,1.26,2.6,2.7,3.72,4.07l2.35,2.87,5.73,6.72,2.6,3.16c2.43,2.96,4.63,5.76,6.87,8.92l4.04,5.72c1.93,2.73,3.6,5.61,5.93,8.06l15.17,16.03c3.52,3.72,6.56,7.62,9.79,11.61,2.08,2.57,4.06,5.18,7.47,6.22l5.36-1.94,5.4-.15c2.81-.08,5.59-1.54,8.43-1.74,4.34-.31,8.48-.54,12.81-1.34,3.56-.66,7.04-.79,10.63-1.19l9.87-1.09,9.68-1.02c1.25-.13,2.3-.33,3.49-.75,3.38-1.21,6.85-1.82,10.42-2.55l15.22-3.11c2.12-.43,4.13-.56,6.23-1.13l12.76-3.51c2.89-.79,8.72.48,10.45-.57.21-.13.21-.77-.01-.88l-1.08-.51c-1.33-.62-2.7-1.45-3.99-1.91-1.52-.55-2.36-1.16-3.31-2.42-2.48-3.3-6.54,2.26-11.12,1.56-.63,1.37-1.25,2.5-1.96,3.45l-.68-.73.27-.86c.43-1.39-.56,1.1-4.3.38-1.17-.22-9.13.98-10.97,1.3l-8.15,1.4c-1.5.26-3.51.55-4.75.58-.32-2.23-1.05-2.6-2.16-3.89-2.29-2.67-5.99-13.51-6.17-16.47-.16-2.58,3.64-3.61,5.37-3.4,3.3.41,5.42-1.33,8.13-2.07,2.63-.71,5.95.36,8.39-.98l.76-.42c.11-.06-.28-.39-.4-.45l-4.43-2.16,1.07-1.57c-5.2-1.12-5.04-3.69-5.84-3.62l-2.14.19c-3.62.32-7.69,1.88-11.28,2.91l-4.28-.15c-.43-.02-1.51-.4-1.85-.48-1.34.3-3.27.14-4.76-.08-4.57,2.78-1.57,0-10.39,1.95-8.35,1.85-6.68-.22-14.27,1.5-2.49.56-4.8.61-7.7.46-.16-1.33,0-2.71.21-4.31.29-2.15-.82-4.58-.96-6.71l-.87-13.27c-.04-.56.02-1.83.45-2.04,1.91-.91,4.08,1.59,6,1.44l5.67-.46,5.72-.22c5.92-.23,11.19.66,15.43-.53.36-.1,1.43-.81,1.33-1.11l-.38-1.18c2.04-1.47-3.49-.89-3.56-2.89-.08-2.25-.56-3.75-2.95-4.52-1.23-.39-3.38-.95-4.85-1.01l-15.4-.68c-4.05-.18-7.98.04-12.11.11l-6.11.1c-2.35.04-4.9,1.53-6.96-.51-1.93-1.9-4.87-1.61-7.41-1.97l-13.56-1.9c-.4-3.69-.4-8.48.29-12.14,1.25-6.6-1.09-10.09.45-16.56l4.93,3.19c7.58,2.07,15.13,1.45,22.88.8,7.88-.67,17.27,5.02,27.33,0-1.02-1.55-1.34-3.23-1.76-5.21l-.89-4.14c-1.47-.64-3.15-1.31-4.26-2.56l-4.39-.94c-2.42-.52-9.95-.18-9.66-.13l-10.16-1.44c-1.64-.23-2.79-.34-4.25-.62l-8.37-1.59-3.62-.39c-2.19-.24-4-.7-6.29-.61-3.37.13-7.13-.58-10.36.33-2.16.61-3.35.9-4.89-1.25-1.42-1.97-3.54-4.53-4.28-7.01-.82-2.74.58-5.92.6-8.65l.08-14.44c4.75-.39,5.56,3.47,10.07,3.12,3.54-.27,6.42.59,9.71,1.65,3.86,1.24,8.13.64,12.19,1.01l8.53.79c3.95.37,16.86,5.74,25.1,4.43.48-1.9,1.34-4.25,1.24-6.32l-.2-4.18,2.12-.52-2.17-2.41c-2.79-.3-6.13-3.05-5.97-3.08-1.91.34-2.14,2.06-2.64,1.4l-.99-1.3c-1.75.59-3.95,1.03-5.86.81l-3.88-.44c-2.75-.31-5.19-.8-8-.69-1.79.07-9.37-.86-11.74-1.31l-6.77-1.3c-2.79-.53-11.65-.58-14.95-.57-1.66,0-3.47-.62-5.27.18-.41.18-1.7.41-1.82,0l-.51-1.67-.98-3.11c.93-2.56.15-5.33.55-7.89l1.51-9.63c1.03-6.54,2.35-6.02,5.81-11.74,2.42,1.78,4.92,3.02,7.82,3.63l6.61,1.4c2.96.63,6.19.57,9.29,1.11l21.35,3.74c5.77,1.01,12.69,3.73,16.99,1.74,1.19-.3,3.74-.19,5.01-.31-.22-2.57.97-6.12,2.4-7.76-.13-3.51-4.26-4.42-6.96-4.87l-6.57-1.09c-1.11-.18-4.76-2.44-11.82-3.24-4.49-.51-9.33-1.33-13.71-2.12-.37-.07-1.39-.73-1.79-.86l-8.18-2.6-5.29-1.75c-.55-.18-1.93.1-2.57.18-1.17-1.66-.74-3.78-.39-5.76,2.08-11.73,3.89-9.86,6.8-20.16,1.87-.65,3.65.88,4.68,2.4,1.18,1.74,3.99,1.63,5.81,2.15,3.16.91,6.35.42,9.54.79l14.19,1.64,16.1,4.77c2.02.6,4.3.21,6.13,1.12.42.21,1.52.3,1.82.04,1.12-1.01,1.12-4.95,1.02-5.81l-.55-4.35,3.56-1.43c-.89-1.31-1.87-1.78-3.42-1.98l-1.87-1.91c-1.96-.45-4.75.22-6.72-.07l-11.99-1.78c-2.05-.3-3.97-.26-6.08-.54l-12.12-1.58c-1.22-.16-3.32.83-4.42.63l-4.35-.78c-1.14-1.7-.37-4.3-.18-6.35l.59-6.49c.13-1.4,1.03-2.71,2.04-3.54l.92-10.12c7.51,1.97,7,2.96,15.01,4.24,4.79.77,9.38.81,14.23.92,4.59.1,8.81.11,13.49-.3,2.45-.21,5.36.53,7.38-1.52-2.68-4.9.48-6.08-4.63-8.48-2.39-1.12-4.31-1.22-6.86-.8-1.51.25-2.61.23-4.13,1.29-.78.55-2.5-.76-3.38-.86l-10.87-1.23c-1.92-.22-4.59,1.19-6.34.89l-4.44-.75-.47-3.77c-2.24-3.77-3.48-7.54-2.64-11.88l1.26-6.55c.08-.44,1.18-.85,1.49-.61,4.12,3.2,9.92,2.47,15.34,2.36,3.49-.07,6.53-.39,9.91-.95,2.85-.47,9.1-1.34,11.53-.15.74-.55-.02-2.28-.65-3.13-4.41-5.93-9.48-6.25-16.75-5.73-.93.07-2.49-.09-3.24.14-1.08.33-1.91.49-2.89.51l-6.83.17c.45-8.43-1.76-4.85-1.49-14.46.07-2.36-.22-4.98-.29-7.23l3.44.3c.72.06,1.53-1.36,2.17-1.99.44-.43,2.11-.04,2.72-.21l4.58-1.3c.86.54,1.83,1.08,2.41.76,2.23-1.25.76-6.55-1.68-9.14l-5.18-5.48c-1.79-1.89-2.6-4.68-3.76-7-.59-1.18-1.4-3.35.02-4.67,3.87-3.59,8.67-5.8,13.78-8.04l3.99,4.57ZM503.89,165.36l-1.66,1.23,1.5.02c.25,0,.21-.57.16-1.25ZM190.72,459.48c2.96.2,7.41.37,9.79.35.43,0,1.46-1.52,1.65-1.17l.91,1.7c.39.73,1.21,1.93,1.89,2.02.59.08,1.92-.93,2.2-1.48.21-1.92-1.48-4.02-2.78-5.43l-1.43-1.56-3.94-4.33c-2.49-2.74-6.15-5.85-7.66-7.78l-3.02-3.89c-1.57-2.01-5.81-6.97-7.89-7.42.04-1.52-.77-2.69-1.97-3.78l-3.61-3.27c-.83-.76-1.89-1.61-2.61-2.56l-5.74-7.68c-.71-.96-1.86-1.74-2.51-2.71-1.37-2-2.77-3.58-4.67-5.12-1.51-1.22-2.6-2.98-4-4.46l-2.64-2.79c-2.09-2.21-3.75-4.52-5.91-6.72-2.04-2.08-3.69-4.68-5.88-6.56-1.85-1.59-2.92-3.16-4.41-5.03l-4.94-6.18-2.8-4.22c-1.86-2.8-4.06-5.18-6.46-7.57l-5.09-5.08c-4.74-4.73-3.29-7.14-6.84-9.78-4.66-3.45-2.3-4.2-4.18-4.59-.41-.08-1.35.33-1.67.63-5.1,4.91-5.02,1.17-8.1,5.97l-2.95,1.53c-.04,2.38-1.71,2.3-3.14,3.11-6.59,3.73-18.84,16.15-24.44,22.03-13.41,14.06-18.39,11.33-21.18,14.69-7.62,9.2-8.18,15.83-8.29,28.01l-.33,36.45c-.05,5.21.39,10-1.14,15.2-.7,2.38-.44,4.83-.34,7.31.17,4.4,1.88,3.45,1.28,4.35l-1.04,1.58c4.98,2.93,17.68,1.98,23.53.93l16.04-2.89c1.99-.36,4.38.12,6.4-.36l9.76-2.36,4.26-1c6.42-1.51,12.51-2.41,19.15-3.06,4.75-.47,9.33-1.88,14-2.71l7.91-1.41,17.58-3.87c4.8-1.06,9.49-1.14,14.28-1.7l12.8-1.49c8.16-.95,3.31-4.31,10.17-3.85ZM260.71,447.37c3.69.23,6.74-.13,9.81-2.04,4.76-2.96,8.19,1.47,13-2.83l-1.93-2.78c-.72-2.54-2.16-4.07-4.1-5.78l-7.51-6.62c-1.16-3.15-3.48-5.19-5.43-7.97l-3.38-4.84c-.83-1.19-1.98-1.8-2.83-2.84l-3.01-3.62-4.65-5.54c-1-1.19-2.46-2.26-3.24-3.64-1.26-2.22-3.82-3.27-5.15-5.2l-4.74-6.88c-.73-1.06-1.44-1.82-2.39-2.76-1.35-1.32-2.43-3.72-3.82-4.91-5.66-2.57-7.3-12.6-12.29-12.32-.24,2.14.02,4.01.42,6.24.21,1.18-2.11,1.49-2.84,2.06-2.59,2-5.25,4.11-8.06,5.85-5.89,3.64-11.64,8.76-14.95,14.73l1.37,3.44c.17.42.97,1.21,1.22,1.55,2.19,2.97,4.68,5.48,7.15,8.21l7.75,8.55,5.74,7.28c.79,1,1.74,2.11,2.59,2.98l8.48,8.68c1.09,1.11,2.33,2.02,3.1,3.54,2.02,4,4.4,7.42,7.18,10.99.57.74,1.14,3.16,2.52,2.95,5.46-.82,6.86-4.73,9.85-4.08,2.3.5,4.27.41,6.47-.64l3.68-1.76ZM440.34,480.67l3.66-.29,4.98-.15c.54-.03,1.62-.99,2.09-.77l1.78.82c5.65-5.28,2.85-9.41,6.94-11.03l-1.36-2.26,1.02-7.78.67-6.11c.19-1.73-.97-4.21.87-5.56.42-.3,1.34-.47,1.55-.87.17-.32.06-1.46-.12-1.77l-1.59-2.82-6.72.69c-1.98.2-3.87.71-5.88.21s-4.05-.35-5.71.53c-1.86,4.59-.31,8.56-1.93,11.15-1.35,2.16-1.43,4.3-2.2,6.72-.37,1.18-1.46,3.03-2.09,4.38l-2.88,6.18-3.64,7.96,5.59.73c1.46.19,3.29.17,4.94.04ZM345.29,691.82l1.36-4.49,3.03-13.95,1.06-4.4c1.67-6.93,3.08-13.74,5.7-20.39s2.44-13.66,4.21-20.27c1.16-4.34,2.94-8.36,4.13-12.77l2.58-9.59,3.07-7.99c1.21-3.14,1.87-5.82,3.37-8.86.76-1.55,1.56-3.61,2.02-5.33l1.8-6.81c1.4-5.32,2.55-10.49,3.58-15.89.18-.93.67-2.29,1.07-3.14,3.52-7.49,4.49-15.45,5.97-23.48l2.07-11.29,2.36-10.77c.38-1.72,1.68-4.05.64-5.78-.43-.72-2.03-1.45-2.76-1.95-.29-.2-.82-1.19-1.07-.96l-1.07.96c-1.57,1.4-4.16,1.08-6.22,1.33-2.2.26-3.31-.15-4.68-1.75-.88-1.02-3.02,0-3.56,1.3-.87,2.1-3.31.28-6.53,1.25-2.49-1.91-5.49-1.24-10.41-2.45l-3.46-.85c-.61-.15-1.68-.39-1.86-.45l.09-5.62.11-6.99c.03-2.2.92-4.78-.01-6.96-.76-1.78-1.14-3.79.63-5.06l5.54-3.96c.93,1.31,2.07,1.53,3.69,1.61,4.35.21,8.56,1.06,12.83-.47,1.46-.52,2.8-.24,4.34-.23l13.07.05,6.32-.17c.76-.02,1.72-.06,2.32-.15,1.52-.21.19-4.42,4.12-7.29,1.88-1.38,2.2-3.2,2.65-5.36l1.37-6.57c-.39-1.01-.96-2.31-.5-3.36.86-1.96,4.81-3.42,2.94-4.53-2.47-1.46-4.99-.89-7.33-.29-.06-.25-.87-.97-1.25-.78-3.56,1.77-8.94,3.54-13.08,4.15-1.18.33-2.7,1.82-3.65,1.89-6.85.51-7.48-.66-14.37,2.1-3.16,1.26-5.98,2.74-8.88,4.56l-3.98,2.5-5.93,3.9-8.16,5.39-5.21,3.21-3.53,2.56c-.88.64-2.23,1.68-3.06,2.42l-15.38,13.89c-3.68,3.33-6.43,8.51-8.65,11.43-3.28,4.32-8.57,12.24-10.12,17.06-.95,2.95-2.08,5.65-2.44,8.6l-1.04,8.34c-.27,2.13-.27,4.27-.44,6.42l-.32,4.15-.46,5.42c-.24,2.8-.24,5.51-.14,8.3l.14,3.71c.28,7.31.57,9.91,2.94,16.61l3.92,11.07c1.86,5.26,3.45,5.72,5.85,11.33,1.72,4.02,5.35,12.4,7.49,15.75,3,4.69,9.21,21.15,9.39,24.26l.53,9.24c.15,2.67,3.06,6.79.42,15.06-.7,2.18-1.27,4.08-1.68,6.29l-.72,3.82c-1.11,5.89-4.4,10.92-8.04,15.67-2.69,3.52-4.37,7.47-5.79,11.81,4.67,1.01,6.45-3.49,9.96-1.35,2.78,1.69,5.32,1.02,8.14.47l5.61-1.1c1.06-.21,3.55.29,4.17-.63,1.07-1.6,1.77-1.58,3.5-2.5s4.65-3.72,4.89-5.6.23-3.39.82-5.3ZM261.47,708.68c1.15-.34,2.52-2.12,3.45-2.63,1.97-1.08,3.66-2.36,5.23-4.12l5.87-6.59c.73-.81,1.27-1.48,2.16-2.2,1.66-1.33,2.57-3.63,3.93-5.32l6.87-8.62c.34-1.3.57-3.49,1-4.81l1.64-5.07c.89-2.75,1.17-5.24.9-8.14-.67-7.19-.49-10.93-2.87-17.86l-1.06-3.09-.72-2.13c-1.05-.61-1.63-1.89-2.3-3.24-2.15-4.35-4.24-8.59-5-13.39-4.66-2.12-2.02-4.9-5.52-8.51-.69-7.19-.57-1.71-1.62-5.63-.77-2.88-2.12-5.35-3.34-8.13-.81-1.85-.66-4.33-1.16-6.32l-2.7-10.78c-.66-2.62-.62-5.28-.53-7.93l.29-8.35-.51-4.14c-.23-1.89-.11-3.65.03-5.44l.77-9.65c.46-5.8-.54-8.93,1.1-14.19,2.34-7.52.58-5.4,1.72-11.25l.85-4.4c.71-3.65,1.36-7.14,2.55-10.66l1.91-5.63c.21-.63.27-2.08.32-2.96,2.46-2.09,4.24-4.95,5.35-8.05.69-.42,2.51-.83,2.96-1.39l2.62-3.29,6.33-5.97,2.6-2.36c4.09-.83,6.66-4.53,6.14-8.55l-4.1-.45c-1.21-.13-3.19,1.22-4.52,1.72-2.49.95-5.06,1.28-7.7,1.88-2.02.46-4.33,1.84-6.46,1.9-3.2.1-5.37.42-8.29,1.35l-4.78,1.54c-2.5.8-3.21,1.56-4.15,4.14-.82,2.24-3,9.27-2.83,11.24l.43,4.96c.29,3.38-.67,5.21-1.76,9.71l-1.61,6.66-2.88,14.94c-2.27,11.79-1.16,5.13-1.74,15.99l-.54,10.17-.69,8.22v4.03c.02,5.88-1.4,9.65-.8,13.89.23,1.63,1.62,3.86,1.42,5.51l-.73,5.97c-.28,2.3-1.2,4.61-1.28,6.92l-.26,7.62-.55,7.03c-.34,4.41-.54,8.22-.26,12.66.07,1.11-.44,3.24-.61,4.59l-1.1,8.91-.87,8.36c-.19,1.86-.49,3.67-.78,5.54l-2.29,14.92c-.39,2.53-.91,4.88-.98,7.46-.07,2.76-.56,5.31-.97,7.99l-.95,6.22c-.68,4.48-2.52,10.3,0,14.36.78,1.27,3.13,2.07,4.28,3.12,5.59,5.09,6.92.25,11.86,2.57,2.63-.76,3.25-3.81,7.17-.82ZM210.23,699.51c1.26-4.94,2.11-9.73,2.59-14.54l1.01-10.11,1.15-8.04c.55-3.84.48-7.82.83-11.76l1.36-15.31c.14-1.61.66-3.65.67-5.13l.07-6.67c.02-2.05-.42-4.49.14-6.45,1.46-5.1-.42-2.8.42-9.23l1.4-10.72c.1-.74.14-1.98.2-2.77l.66-8.12.76-9.44c.45-5.6.95-10.94,2.65-16.47.43-1.39.2-3.05.26-4.51l.24-5.66.53-9.34.53-9.83c.16-2.9.93-5.87,1.46-8.77.58-3.21.39-6.43.76-9.65.23-1.96,1.03-4.02,1.12-6.1l.4-9.42c.1-2.38-.18-4.84-.28-7.35-.26-6.09-1.25-2.31-.94-9.88l-5.23-.28c-.38,1.18-1.99,3.4-2.22,4.61-.98,5.34-1.53,10.39-2.01,15.75-.2,2.2-.06,4.58-.51,6.56-.39,1.74-.93,3.52-1.08,5.18l-.61,6.46c-.47,5,.02,9.8-.47,14.76l-1.46,14.96c-.24,2.43-.04,3.52-.88,5.83-1.16,3.17-.25,10.52-.94,14.39l-1.11,6.21-1.75,12.27c-.37,2.62-1.18,5.34-1.25,7.94-.13,4.41-.12,8.54-.94,12.79l-2.56,13.29c-.08.4-.17,7.18-.47,10.25-.62,6.38-.93,12.64-1.2,19.09l-.33,8.09-.83,10.24c-.42,5.22-.27,10.3-.88,15.61-.45,3.95.05,8.1-.74,11.84-.42,1.97-1.52,3.72-1.32,5.85l.46,5.02c1.39-.99,2.48-1.72,3.13-2.02.9,1.98,1.26,2.69,2.36,4.01,2.95-1.98,2.65-4.87,3.4-7.81l1.43-5.61ZM460.75,631.27c2.49.86,3.56,1.33,6,.49,1.6-.55,4.29-.98,6.18-.6l5.91,1.2c2.23.45,2.13-2.29,2.12-3.65l-.1-15.91c0-1.47.33-2.52.8-4.48,1.01.22.37.08-.52-.11-.5-3.53-.81-6.98-.75-10.76l.1-6.3c.05-3.22-.16-6.26.19-9.49l.9-8.28c.09-.82-.48-2.56-.44-3.34.68-11.32-1.56-6.69.41-19,.3-1.85.42-3.15.28-4.92-.15-1.95.66-4.35.67-6.3l.02-5.26.08-5.02.1-3.32c.04-1.26.49-2.84.5-3.8l.05-2.82c.04-2.37.34-4.19-.62-6.41-.73-1.68.51-4.17.69-5.84l.63-5.91.28-3c.28-3.02.65-5.8.87-8.82.06-.79-1.63-1.82-2.09-1.16-.43.61-2.44,7.71-1.19,7.99-.45,1.29-1.07,3.06-1.61,4.59l-1.56,4.43c-.22.62-.17,1.8-.14,2.4l-1.14,4.7-1.48,5.87-3.73,13.77-1.73,6.45-1.2,5.38-1.61,7.24-.42,2.89c-.33,2.23-1.08,4.41-1.59,6.6l-2.13,9.09c-.16.67-.6,1.74-.67,2.44-.1.96-.1,2.42-.31,3.13l-2.01,6.85c-1.03,3.5-2,7.01-2.8,10.6l-1.76,7.88-.72,4.37c-.45,2.75-.96,5.39-1.8,8.12l-1.49,4.82-2.27,8.26c-.49,1.77-.48,3.76.11,5.49,1.83-1.24,4.55-2.25,6.28-.75,1.82,1.58,3.42-.24,4.76.23ZM178.2,611.81c.38-.16,1.18-1.3,1.19-1.9,0-5.19.45-13.68,1.61-18.21-.48-1-.07-2.15.04-3.27l.62-6.61,1.92-23.97c.64-7.96,1.07-8.96,1.27-17.83l.28-12.46.72-3.72.83-14.84.4-5.14c.25-3.25-.42-5.27-.34-9.85,0-.53.28-1.48-.07-1.64l-1.4-.65c-2.07-.96-4.75-1.14-5.81,1.34-.38.88-1.08,2.01-1.74,2.37-.57.31-2.28-.43-3.04-.33-2.76.36-6.34,1.09-9.48.37-3.71-.86-1.58,5.28-1.2,11.24.06,1.01,1.18,14.6,1.08,14.09,1.48,7.29,3.03,14.48,3.48,22.12l.25,4.24,1.41,13.65.7,8.87.37,5.38c.22,3.21.7,5.85,2.9,8.44.1,1.3.19,3.2.18,4.6l-.08,9.36c-.04,4.8-.14,10.68,3.92,14.35ZM107.12,698.95c-.1,2.04-1.56,5.16.4,6.91.45.37,2.05.51,2.08,1.08l.16,2.78,3.95-.56c2.03-2.71-1.32-3.52.38-6.64.76-1.4.57-2.46.34-4.02-.43-2.85.86-6.06.62-8.79-.11-1.27-.21-2.16-.11-3.41l.38-4.82.55-.91c.12-.2-.45-.84-.36-1.07l.5-1.17c.11-.26-1.01-.73-1.08-1-.27-.99.88-3.16.86-4.2-.03-1.3-.44-3.05-.2-4.54.9-5.74.57-11.66,1.59-17.28l.5-2.72c1.27-6.94-.43-11.52,1.51-15.72.74-1.61,1.19-2.79,1.37-4.66l2.01-20.93.32-3.56,1.25-13.72c.14-1.49.47-2.82.76-4.31.63-3.3.8-6.7,1.15-10.12l.68-6.6.63-7.87c.23-2.91.57-5.74.68-8.62.17-4.3.42-8.37,1.11-12.67.21-1.29-.28-2.98-.22-4.04.4-8.07.38-6.07,3.2-11.44.6-1.14.18-2.57.29-3.77.18-2,2.03-8.17,2.83-10.32.68-1.81,1.94-2.72,1.13-4.95l-1.53-4.19c-.39-1.06-1.42-1.96-2.4-1.8-.71.11-1.59,1.34-2.02,2.04-3.23-1.59-1.35.51-7.39-.19-2.44-.28-5.67,2.43-5.33,5.05.31,2.38,2.82,4.77,1.39,7.29-.9,1.58-.69,3.54-1.2,5.2-.79,2.56-2.76,4.93-3.46,7.76-.95,3.83-.8,7.79-.69,11.8.01.52-.04,1.46.29,1.62s1.11.01,1.17-.36l.16-1.01c.04-.22.92-.1.91.12l-.08,1.01-.09,1.12c-.02.26-2.41.58-2,1.07l.66.79c.61.74,1.27,1.44,1.57,1.99s-.82,2.12-.68,2.82c.53,2.71.31,6.69-.36,9.66-.58,2.59-.6,5.14-.98,7.71-.53,3.57-.7,7.53,0,11.03l.85,4.22c.96,4.78-.62.63-1.22,7.13-.33,3.65-.99,7.12-.69,10.64.19,2.3-.21,3.98-1.86,5.65-.41.48.99,1.62,1.82,1.95l-.41,6.85c-.1,1.7.1,3.63-.14,5.24-.28,1.86-.67,3.57-.42,5.53.23,1.83-.14,3.39-.34,5.14-.31,2.72-.58,5.49-.72,8.23l-.41,7.63c-.14,2.54.17,5.15-.48,7.54-.55,2,.09,4.3-.13,6.41l-.84,7.91-.37,6.31-.58,6.99c-.41,4.92-.31,8.92-.76,13.25-.23,2.23-.39,4.2-.51,6.52ZM393.64,711.17l4.54-3.64c-.19-6.92,2.57-2.08,4.23-9.7l1.76-8.14c1.11-5.12,3.52-9.62,4.38-14.75.64-3.83,1.56-7.58,2.43-11.44l1.39-6.12c2.8-12.35,3.75-8.66,5.28-24.55.28-2.86,1.45-5.85,1.88-8.67l.9-5.94.93-5.75.58-3.57c.7-4.27,1.07-8.46,2.33-12.65l3.87-12.84c.99-3.3,1.89-6.57,2.73-9.95l2.42-9.7c.84-3.35,1.37-6.59,2.19-9.96l3.63-14.88c1.01-4.13,1.74-8.25,3.26-12.18l1.53-3.93c1.14-2.94,6.62-14.86,5.38-16.6-10.03-3.33-4.39-2.5-10.97-1.76-2.1.24-4.28-.42-6.43.71-3.66,1.94-5.61-5.07-6.3-1.33-.54,2.94-1.24,5.4-2.26,8.16-1.53,4.1-.89,4.95-2.66,9.93-.65,1.81-.94,3.42-1.35,5.27-1.11,5.02-3.58,9.77-3.84,14.89-.36,7.11-1.9,7.58-3.17,14.48-1,5.43-1.71,10.64-3.37,15.88-1.57,4.94.62,6-2.29,13.58-.5,1.3-.89,2.39-1.14,3.63l-1.82,8.81-2.89,11.19-.83,3.26-3.2,9.9-2.19,9.42-1.59,7.07-1.81,7.73c-.55,2.34-1.06,4.87-1.76,7.17-1.5,4.97-2.12,9.72-3.45,14.71l-1.88,7.07c-.43,1.6-.68,3.52-1.15,5.15l-2.82,9.91-1.56,5.93c-.36,1.37-.41,3.83-.97,4.96-1.04,2.09-2.13,4.35-2.13,6.74,8.9.19,6.93,3.31,18.21,2.5ZM27.06,623.47l.18,3.17c.55.08,1.62-.62,1.86-1.12l1.87-3.89c2.48-5.17,2.27-8.4,5.69-9.98,1.1-1.1,1.29-4.02,2.04-5.6,1.36-2.87,2.67-5.66,4.26-8.32,1.48-2.46,2.89-4.67,3.83-7.43.66-1.93,1.67-3.3,2.87-4.94,1.72-2.34,1.68-5.79,2.83-8.43l4.22-9.61c1.13-2.56,1.65-5.52,3.11-7.82,3.7-5.84,6.44-11.8,9.16-18.13.51-1.18,1.4-2.5,2.09-3.59,4.31-6.85,3.61-8.88,8.15-14.67,2.64-3.37,4.87-7,5.63-11.18-.85-.84-2.14-.75-3.27-.62-2.07.24-3.42.81-5.13,2.24-1.41,1.18-3.64.18-5.41.09-4-.2-10.19,3.04-18.97,3.66-11.65.83-7,3.09-15.19,4.04-2.97,3.95-1.85,8.82-1.51,13.21.83,10.95-.98,20.92-.93,31.46.02,4.9-1.03,18.66-2.49,23.2-1.15,3.57-1.69,6.91-.39,10.65-3.93,8.15,0,4.22-2.2,10.32-.71,1.99-1.12,4.62-1.27,6.7,1.58,1.23,1.88,3.14,1,4.6-.68.09-1.15.13-1.5.26s-.58,1.36-.55,1.75ZM74.37,635.09c.97-.14,2.84,2.31,3.71.49.25-.53.73-1.27,1.06-1.55.85-.73,3.13.75,3.9-.25.28-.36.6-1.24.77-1.84l1.74-6.41c-.52-1.14-.64-2.1-.48-3.17l.36-2.45c-.41-.03-.94.07-.9-.13s.27-1.19.19-1.37c-.7-1.52.8-4.67.91-6.37l.81-12.25c.24-3.61.12-7.27,1.02-10.72.82-3.17.26-6.1.44-9.08.34-5.66,3.3-11.01,3.06-16.86l-.13-3.02-2.29-1.82c-1.26,2.3-1.9,4.21-2.67,6.5l-3.04,9.01-4.22,10.08-1.24,3.52c-.57,1.61-.86,3.53-2,4.9-2.56,3.1-4.52,6.23-6.01,9.96-.85,2.14-1.81,4.32-2.27,6.55-1.48,7.09-2.18,5.45-4.08,11.61l-3.94,4.95c-1.18,1.49-1.9,1.87-1.8,4,.04.8-.36,2.1.06,2.66,2.36,3.12,5.68,2.87,7.57,3.22,3.11.57,6.35.31,9.48-.16ZM29.69,560.7c-.4-.62-1.87-.59-1.9,0,.12.58,1.9.54,1.9,0ZM170.3,692.07c-.5-1.1-1.24-2.61-1.5-3.57l-.92-3.45-1.85-6.75-.97-5.06c-.35-1.83-1.38-6.76-2.91-7.98l-.16-1.97-.5-7.09-.5-3.82c-.3-2.27-.91-4.41-1.54-6.5-1.09-3.63-2.23-5.09-1.55-6.7-2.09-.42-.98-3.24-1.68-4.22-.97-1.36-2.23-2.7-2.21-4.72l.06-4.68c-.5-.23-2.45-2.03-2.3-3.07l.82-5.65c.11-.75-.04-1.66-.21-2.53-.43-2.21-.08-7.6-.55-9.91-.24-1.21-.57-3.36.27-4.27.31-.34.52-1.82.12-1.85l-1.9-.17.05-2.82-.83-.62c-.16-.12.41-.42.59-.49l.99-.35c-4.47-1.72-1.73,3.78-2.83,10.93-.34,2.22-.09,4.67-.27,6.88l-.34,3.97c-.08,1-.48,2.3-.49,3.33-.04,5.54-2.19,11.12-1.72,16.56.27,3.15.09,5.52-.38,8.66l-1.37,9.09-.87,4.81c-.54,3.02-1.91,17.46-.42,20.4l-.87,2.85.07,7.34c.07,8.03,2.24,6.31,1,11.37l-1.1,4.47c.84,1.78,4.39,3.17,6.23,2.19,2.24-1.19,4.38-1.05,6.14.82l4.45.41c1.88.17,3.71-.09,4.88,1.88,2.12,3.54,3.47.01,8.26.41-3.3-5.64,2.64-5.32-.75-14.26-.41-1.09-.07-3.04-.46-3.89ZM38.45,710.76c1.88.11,3.34-.34,4.85-.26l3.95.21c8.3.44,3.73-.95,12.22-1.95l6.98-.82c1.92-.22,5.76-2.8,7.61-1.53.66.45,1.24,1.49,2.14,2.77,1.1-2.9,1.61-6.03,1.81-9.15l.19-2.95c.2-3.13.5-6.02.92-9.28.7-2.28,3.83-5.87,4.05-7.61.07-.6-.98-1.71-1.1-2.38-1.25-7.02-2.56-2.31-.73-8.49l1.51-5.1c.43-1.47-.68-4.02-1.73-5.62-.65-.02-1.93.85-2.33,1.44-1.26,1.85-2.74,1.36-4.62,1.21l-4.48-.35c-.95-.07-2.36-1.31-3.19-1.28l-13.55.5c-1.68.06-3.53.27-5.27.65-3.83.82-5.65,9.06-5.73,9.17l-4.08,5.02c-1.65,2.03-2.26,4.62-3.72,6.99-.17,1.16,0,3.08-.94,4.14-2.37,2.66-1.94,6.45-3.32,9.51-.76,1.69-1.97,3.37-2.57,5.11l-1.94,5.67c-.41,1.19-.81,2.58-.41,4.11,1.38.49,3.53-.28,5.25-.18l8.23.47ZM477.2,708.45l3.93-.59c1.37-.21,2.92-1.11,4.45-1.81l-4.73-2.48,2.79-5.43c.1-.2.83-.6.74-.78s-.42-.67-.43-.87c-.16-2.93-.67-4.5.89-4.73-.29-.13-.99-1.14-.89-1.71.08-.45.51-1.03.96-1.64-2.02-1.12-.98-3.2-1.11-4.61l-.32-3.63c-.16-1.74-1.26-1.59-.25-7.79.12-.77.21-1.93.74-2.22l2.43-1.36-5.59-2.27c-.62-.25-1.86-1.54-2.16-1.69-1.23.32-1.82.25-3.13.03l-6.98-1.19c-.21-.04-.91-1.21-.79-.94.06.14-.52.85-.74.85l-14.93.41c-3.81.1-7.07.05-10.81-.01-.36,6.13-3.11,5.56-3.44,10.06-.59,8.13-4.54,8.04-4.78,19.37-.04,1.99,1.4,4.73-.71,6.25-.86.62-2.57,1.62-2.66,3.04l-.24,3.69c4.15-2.1,10.14,1.4,12.87,1.44,9.56.15,9.88.92,20.72.35,4.44-.24,12.58.48,14.15.25Z"/><path class="cls-1" d="M204.88,262.18l-5.83,1.49c-1.67.43-3.47.9-5.05,1.43-1.44.49-2.95,1.65-4.65,1.77-15.01,1.04-5.79,3.04-24.86,1.79l-10.85-.71-5.43-.93c-1.24-.21-2.41-.27-3.55,0-6.05-3.7-6.77-2.06-14.92-5.64l-13.02-5.72-3.92-2.55c-3.39-2.2-6.23-4.44-9.46-6.78l-6.22-4.51c-2.86-2.07-4.99-4.92-7.56-7.35-2.22-2.1-4.28-4.01-6.01-6.57-1.29-1.91-8.03-10.89-8.15-11.17l-4.85-12.19c-1.23-3.1-4.69-12.94-5.2-15.91-.56-3.3-.88-6.4-1.76-9.55l-2.46-24.3c-.52-5.16-.03-10.16.46-15.35.95-10,5.48-18.95,10.33-27.7,3.14-5.65,6.7-10.48,10.54-15.59,3.08-4.1,5.76-8.28,9.72-11.67l10.58-9.05c1.31-1.12,3.32-2,4.82-3.06,3.02-2.14,6.04-3.89,9.25-5.63l6.94-3.77c2.84-1.54,9.11-3.88,11.99-3.72l5,.27c4.27.23,8.44-.45,12.7.14l14.5.53c4.29.16,8.31-.21,12.57.22,8.18.82,9.98-.16,16.3,3.15,2.01,1.05,4.89,1.44,6.75,2.89,6.31,4.9,4.35,0,13.91,6.57,5.21,3.58,12.1,5.29,17.37,8.72,2.78,1.81,5.56,3.41,8.16,5.34l5.9,4.38c1.49,1.11,3.14,2.42,3.6,4.3s1.82,2.62,3.03,3.97c2.78,3.12,5.28,6.4,7.84,9.85.98,1.31.64,4.19,1.31,5.65,1.92,4.18,3.59,8.08,4.83,12.46l3.41,11.96c.89,3.12,1.7,6.17,1.97,9.41.97,11.93,2.94,30.19-.65,41.61-2.61,8.29-4.85,14.72-9.23,21.97l-5.47,9.07-5.66,9.25c-1.29,2.1-3.55,3.89-5.24,5.86-9.23,10.75-9.02,10.56-22.05,16.59l-3.98,1.84-6.69,2.79-7.97,3.3c-.77.32-2.01.61-3.08.89ZM161.23,236.29c1.78-4.53-2.26-7.83-4.92-10.36-2.51-2.38-4.85-5.12-6.91-7.91-8.54-11.57-4.27-4.7-9.51-17.01-1.44-3.4-1.61-7.22-2.47-10.77-1.57-6.45-1.65-5.01-2.78-11.71l-1.41-8.35c-.62-3.7-.48-14.67.35-18.29l2.95-12.88c1.98-8.66,5.97-22.24,10.1-30.08,2.27-4.31,7.11-7.97,8.11-10.17,3.1-6.86,5.55-1.71,7.42-9.98-1.9-.88-3.46-.64-5,.08s-4.09.85-5.23,1.76c-1.74,1.4-2.44,1.59-4.73.91-6.74,3.73-5.94,2.15-12.76,5.18-2.92,1.29-5.73,2.27-8.09,4.83l-3.42.59c-.3,1.92-2.43,1.74-3.41,2.7-6.8,6.69-12.75,14.17-17.51,22.53-2.15,3.78-3.79,7.82-5.27,11.89-2.01,5.5-2.58,11.4-3.15,17.22-.69,7.14.54,13.71,2.01,20.51.26,1.21-.73,3.61-.27,5.12,1.81,5.97,4.33,11.09,7.32,16.43,1.96,3.51,3.27,7.39,5.85,10.4l7.22,8.4c.97,1.13,3.01,2.18,4.27,3.14l5.19,4c12.21,9.41,16.71,9.81,31.27,13.9,2.01.56,4.22,1.64,5.97-.42l-1.18-1.66ZM206.3,224.51c1.64-.3,3.31-2.55,4.6-3.57,2.63-2.06,4.61-4.34,6.9-6.72l6.6-6.86,2.87-3.29c2.34-2.68,3.85-5.65,5.47-8.86l4.69-9.28c2.06-4.08,3.71-8.68,4.3-13.3.59-4.59,0-9.14.05-13.74.05-3.82-.62-7.38-1.17-11.13-.58-3.96-1.03-7.77-2.49-11.48l-3.97-10.08c-.9-2.29-2.39-4.4-3.9-6.37-2.37-3.08-4.42-5.94-6.63-9.24-.55-.81-1.93-2.05-2.7-2.73-5.31-.68-2.36-5.68-10.36-8.25-3.87-1.24-6.06.63-8.52,2.88-.81.74-2.82.92-3.33,2.31-.54,1.48-1.97,1.9-3.53,2.09l-.12,2.76c-5.89-1.11-12.95,6.42-16.45,10.49-6.86,7.97-9.23,12.39-11.76,22.48l-1.59,6.35c-.89,3.55-.44,7.33-.4,10.93.08,6.6.53,12.9,2.24,19.47,2.45,9.41,6.7,18.26,12.16,26.33,2.06,3.04,4.73,5.55,7.08,8.36,6.6,7.92,8.91,5.81,11.15,8.74l2.22,2.91,6.59-1.22Z"/><path class="cls-1" d="M334.94,597.93c-.87.39-2.34,1.33-3.37,1.99-.84-.28-7.94-4.83-7.06-6.11-1.53-.66-3.66-.97-5.69-1.06l-.13-1.27c-2.53.12-2.83-1.97-3.62-3.74-5.91-3.66-1.26-3.25-4.76-5.82l.42-.8c.12-.23-.5-.45-.88-.69l-.79-.5c-.21-.13.56-.58.9-.86-.64-.19-1.89-.65-1.94-1.26l-.22-2.71c-.13-1.61-.72-3.52-.66-5.09.05-1.11-.08-1.87-.1-2.64-.13-4.03.34-7.86.78-11.78l.53-4.7c.11-.95.38-2.27.58-3.3l.98-4.88c.56-2.81,2.74-10.08,3.87-12.94,3.49-8.83,13.89-13.57,22.39-16.41,5.01-1.67,10.45-1.65,15.66-.5l9.22,2.03c2.75.61,4.65,3.59,6.81,5.02,2.98,1.98,4.15,4.26,5.46,7.46,2.03,4.94,2.83,7.87,1.34,13.84-1.54,6.14.56,2.1-.35,8.96-.75,5.61-.19,8.17-2.14,11.75-1.22,2.22-.37,5.57-1.6,7.83l-6.14,11.33c-3.29,6.08-3.28,5.03-9.96,10.55-1.95,1.61-4.8,3.53-7.05,4.24l-9.21,2.89c-.23.58-.46.79-.66.67-.64-.51-1.95-1.76-2.59-1.47ZM346,569.31c.94-.38,2.62-1.84,3.16-2.6,1.42-2.01,1.33-4.92,1.54-7.41l.56-6.65c2.75-4.22.62-5.95-1.57-11.64-.1-.26-.95-.49-1.21-.69l-2.69-2.06c-.29.43.14-.23.47-.73l-5.59-1.37c-.26.42-.64.91-.96,1.06l-3.45,1.63c-1.58.75-1.79,1.82-2.61,3.24-2.96,5.14-5.9,7.74-4.53,12.14-.92,2.84-1.28,7.28-.5,10.5.29,1.2,1.2,2.14,1.83,3.42.96,1.94,2.72,6.32,6.1,4.96l9.46-3.8Z"/></svg>